<?xml version="1.0" encoding="iso-8859-1"?>
<!-- Generator: Adobe Illustrator 16.0.0, SVG Export Plug-In . SVG Version: 6.00 Build 0)  -->
<!DOCTYPE svg PUBLIC "-//W3C//DTD SVG 1.1//EN" "http://www.w3.org/Graphics/SVG/1.1/DTD/svg11.dtd">
<svg fill="#00bbff" version="1.1" id="Capa_1" xmlns="http://www.w3.org/2000/svg" xmlns:xlink="http://www.w3.org/1999/xlink" x="0px" y="0px"
	 width="611.994px" height="611.994px" viewBox="0 0 611.994 611.994" style="enable-background:new 0 0 611.994 611.994;"
	 xml:space="preserve">
<g>
	<g>
		<path d="M254.229,180.732c-9.465-13.319-27.982-16.487-41.34-6.993c-13.349,9.474-16.487,27.992-7.003,41.35l56.503,79.552
			c-0.618,2.933-0.971,5.983-0.971,9.111c0,24.226,19.616,43.861,43.831,43.861c12.75,0,24.127-5.521,32.14-14.201h63.565
			c16.379,0,29.648-13.28,29.648-29.65c0-16.369-13.27-29.649-29.648-29.649H337.38c-6.807-7.375-16.065-12.299-26.511-13.652
			L254.229,180.732z"/>
		<path d="M514.216,209.282c7.797,16.909,13.564,34.926,17.026,53.767c1.108,6.062,6.649,10.229,12.789,9.671l55.238-5.081
			c3.295-0.294,6.307-1.952,8.327-4.57c2.03-2.629,2.854-5.963,2.314-9.229c-5.316-32.022-15.585-62.339-30.022-90.193
			c-1.628-3.168-4.59-5.424-8.071-6.179c-3.481-0.735-7.11,0.098-9.906,2.315l-44.302,35.19
			C513.343,198.396,511.921,204.3,514.216,209.282z"/>
		<path d="M472.974,474.026c-4.512-3.09-10.533-2.707-14.623,0.922c-35.642,31.64-81.209,52.314-131.416,56.66V504.97
			c0-10.926-8.847-19.763-19.763-19.763s-19.772,8.847-19.772,19.763v26.619c-110.005-9.494-197.834-97.314-207.328-207.328H106.7
			c10.916,0,19.763-8.837,19.763-19.764c0-10.926-8.847-19.763-19.763-19.763H79.993c8.925-103.345,87.045-187.025,187.683-204.67
			c5.688-1,9.847-5.924,9.847-11.701v-56.15c0-3.433-1.491-6.719-4.1-8.975c-2.599-2.255-6.052-3.285-9.465-2.795
			C114.771,21.433,0,149.542,0,304.497C0,474.144,137.526,611.67,307.172,611.67c83.338,0,158.721-33.377,214.037-87.28
			c2.55-2.491,3.854-5.983,3.55-9.533c-0.313-3.551-2.177-6.797-5.119-8.808L472.974,474.026z"/>
		<path d="M346.668,80.044c7.769,1.354,15.398,3.089,22.862,5.208c5.718,1.618,11.711-1.216,14.113-6.64l22.539-50.824
			c1.373-3.089,1.354-6.62-0.04-9.71c-1.383-3.07-4.021-5.443-7.247-6.473c-15.663-4.963-31.847-8.768-48.48-11.161
			c-3.413-0.48-6.886,0.54-9.484,2.795c-2.608,2.256-4.1,5.542-4.1,8.994v56.081C336.821,74.121,340.97,79.054,346.668,80.044z"/>
		<path d="M469.031,144.266c4.267,4.345,11.103,4.747,15.869,0.971l43.527-34.592c2.618-2.07,4.236-5.159,4.472-8.494
			c0.235-3.345-0.951-6.601-3.256-9.033c-15.84-16.644-33.523-31.483-52.737-44.243c-2.912-1.932-6.541-2.491-9.915-1.51
			c-3.364,0.98-6.13,3.394-7.543,6.601l-22.754,51.295c-2.266,5.139-0.667,11.161,3.874,14.437
			C450.729,127.092,460.233,135.331,469.031,144.266z"/>
		<path d="M608.616,330.782c-2.511-2.569-6.032-3.884-9.602-3.55l-56.444,5.188c-5.385,0.481-9.739,4.542-10.642,9.867
			c-4.228,25.196-12.603,48.941-24.392,70.597c-2.913,5.346-1.324,12.044,3.707,15.486l45.812,31.444
			c2.746,1.893,6.159,2.55,9.405,1.795c3.247-0.755,6.022-2.835,7.67-5.728c19.782-34.809,32.925-73.824,37.78-115.399
			C612.334,336.902,611.117,333.353,608.616,330.782z"/>
	</g>
</g>
<g>
</g>
<g>
</g>
<g>
</g>
<g>
</g>
<g>
</g>
<g>
</g>
<g>
</g>
<g>
</g>
<g>
</g>
<g>
</g>
<g>
</g>
<g>
</g>
<g>
</g>
<g>
</g>
<g>
</g>
</svg>
