<?xml version="1.0" ?><svg width="32px" height="32px" viewBox="0 0 32 32" xmlns="http://www.w3.org/2000/svg"><defs><style>.cls-1{fill:#568c78;}.cls-2{fill:#f2d8c2;}</style></defs><title/><g data-name="Layer 13" id="Layer_13"><path class="cls-1" d="M7.91,29.67a1,1,0,0,1-.35-.06,8.85,8.85,0,0,1-5.33-6,7.22,7.22,0,0,1,4.51-8.35c2.3-.76,4.14.49,6.09,1.82l.89.6A1,1,0,0,1,14,19.07a1,1,0,0,1-1.38.29c-.31-.21-.62-.41-.91-.62-1.9-1.29-3-2-4.34-1.57a5.25,5.25,0,0,0-3.19,6,6.93,6.93,0,0,0,4.08,4.56A1,1,0,0,1,8.85,29,1,1,0,0,1,7.91,29.67Z"/><path class="cls-1" d="M21,21.7h-1l-.43,0a1,1,0,0,1-1-1,1,1,0,0,1,1-1l.35,0a3.86,3.86,0,0,1,.46,0c1.63.06,3.37-.08,3.94-1.67a5,5,0,0,0-.55-4,1,1,0,0,1,.3-1.39,1,1,0,0,1,1.38.31,7,7,0,0,1,.75,5.76C25.27,21.4,22.56,21.7,21,21.7Z"/><polygon class="cls-1" points="10.14 29 11.37 27.16 11.18 27.02 10.14 29"/><path class="cls-1" d="M10.14,30a.94.94,0,0,1-.51-.14,1,1,0,0,1-.38-1.32l1-2a1,1,0,0,1,.65-.51,1,1,0,0,1,.81.16l.19.13a1,1,0,0,1,.26,1.37L11,29.55A1,1,0,0,1,10.14,30Z"/><path class="cls-2" d="M26.4,3.69,24.77,2.55a2.81,2.81,0,0,0-2.2-.49,2.2,2.2,0,0,0-1.47,1L10.61,20.77c-.74,1.26-1.74,6,.13,7.17a1.71,1.71,0,0,0,.92.24c1.89,0,4.57-2.29,5.18-3.06a1,1,0,0,0,.08-.11L27.4,7.34A2.8,2.8,0,0,0,26.4,3.69Z"/><line class="cls-1" x1="19.57" x2="24.15" y1="7.64" y2="10.86"/><path class="cls-1" d="M24.15,11.86a.93.93,0,0,1-.57-.19L19,8.45a1,1,0,0,1-.25-1.39,1,1,0,0,1,1.4-.24L24.73,10a1,1,0,0,1-.58,1.82Z"/><circle class="cls-1" cx="17.82" cy="16.05" r="0.01"/><path class="cls-1" d="M17.82,17.06a1,1,0,0,1-.63-.22,1,1,0,0,1-.27-1.24h0v0h0L17,15.5h0a1,1,0,0,1,.62-.43,1,1,0,0,1,1.22.93,1,1,0,0,1-.11.5h0a1,1,0,0,1-.08.14l-.11.12h0A.93.93,0,0,1,18,17Z"/><circle class="cls-1" cx="16.17" cy="18.84" r="0.01"/><path class="cls-1" d="M16.16,19.85a.85.85,0,0,1-.31-.06.92.92,0,0,1-.31-.16,1,1,0,0,1-.27-1.24,1,1,0,0,1,1.22-.5,1,1,0,0,1,.31.16,1,1,0,0,1,.27,1.24A1,1,0,0,1,16.16,19.85Zm0-1-.32.93Zm.89.43h0Zm-.89-.44Z"/><path class="cls-2" d="M26.81,13.12A1.06,1.06,0,0,1,26.3,13,1,1,0,0,1,26,11.61l1.66-2.8L26,7.65A1,1,0,1,1,27.12,6l2.4,1.69A1,1,0,0,1,29.81,9l-2.14,3.59A1,1,0,0,1,26.81,13.12Z"/></g></svg>