<?xml version="1.0" encoding="iso-8859-1"?>
<!-- Generator: Adobe Illustrator 19.0.0, SVG Export Plug-In . SVG Version: 6.00 Build 0)  -->
<svg version="1.1" id="Layer_1" xmlns="http://www.w3.org/2000/svg" xmlns:xlink="http://www.w3.org/1999/xlink" x="0px" y="0px"
	 viewBox="0 0 512 512" style="enable-background:new 0 0 512 512;" xml:space="preserve">
<path style="fill:#FFCD60;" d="M305.816,470.487c0-18.342,0-71.957,0-71.957h-99.632v55.351l22.141,38.746l77.492,11.07h33.211
	C320.686,503.697,305.816,488.829,305.816,470.487z"/>
<path style="fill:#FFDB8A;" d="M272.605,470.487v-16.605h-66.422v16.605c0,18.342-14.868,33.211-33.211,33.211h132.843
	C287.475,503.697,272.605,488.829,272.605,470.487z"/>
<path style="fill:#78E3EC;" d="M474.638,55.351h-33.211l33.211,321.038l33.211-22.141V88.562
	C507.849,70.296,492.904,55.351,474.638,55.351z"/>
<path style="fill:#D0FBFD;" d="M474.638,88.562c0-18.266-14.945-33.211-33.211-33.211H37.362c-18.266,0-33.211,14.945-33.211,33.211
	v265.686l470.487,22.141V88.562z"/>
<path style="fill:#FFCD60;" d="M474.638,354.249l-33.211,66.422h33.211c18.266,0,33.211-14.945,33.211-33.211v-33.211H474.638z"/>
<path style="fill:#FFEAB5;" d="M474.638,387.459v-33.211H4.151v33.211c0,18.266,14.945,33.211,33.211,33.211h404.065
	C459.693,420.67,474.638,405.725,474.638,387.459z"/>
<circle style="fill:#2F5E88;" cx="256" cy="387.393" r="8.303"/>
<path style="fill:#FFCD60;" d="M408.215,512H103.783c-4.585,0-8.303-3.717-8.303-8.303c0-4.585,3.717-8.303,8.303-8.303h304.432
	c4.585,0,8.303,3.717,8.303,8.303C416.518,508.283,412.8,512,408.215,512z"/>
<polygon style="fill:#FFEAB5;" points="355.632,55.351 355.632,265.686 300.281,298.897 300.281,22.141 "/>
<polygon style="fill:#FFFFFF;" points="322.422,33.211 322.422,287.827 156.368,265.686 156.368,55.351 "/>
<g>
	<path style="fill:#27467A;" d="M322.422,265.686l-33.211,55.351h33.211c18.266,0,33.211-14.945,33.211-33.211v-22.141H322.422z"/>
	<path style="fill:#27467A;" d="M322.422,0h-33.211l33.211,55.351h33.211V33.211C355.632,14.945,340.688,0,322.422,0z"/>
</g>
<g>
	<path style="fill:#2F5E88;" d="M322.422,265.686v22.141c0,18.266-14.945,33.211-33.211,33.211h-99.632
		c-18.266,0-33.211-14.945-33.211-33.211v-22.141H322.422z"/>
	<path style="fill:#2F5E88;" d="M322.422,33.211v22.141H156.368V33.211C156.368,14.945,171.312,0,189.578,0h99.632
		C307.477,0,322.422,14.945,322.422,33.211z"/>
</g>
<g>
</g>
<g>
</g>
<g>
</g>
<g>
</g>
<g>
</g>
<g>
</g>
<g>
</g>
<g>
</g>
<g>
</g>
<g>
</g>
<g>
</g>
<g>
</g>
<g>
</g>
<g>
</g>
<g>
</g>
</svg>
